<mxfile host="65bd71144e">
    <diagram id="6mOy798XpB74Yk2sk_v2" name="Page-1">
        <mxGraphModel dx="2570" dy="2074" grid="1" gridSize="10" guides="1" tooltips="1" connect="1" arrows="1" fold="1" page="1" pageScale="1" pageWidth="850" pageHeight="1100" math="0" shadow="0">
            <root>
                <mxCell id="0"/>
                <mxCell id="1" style="locked=1;" parent="0"/>
                <mxCell id="363" style="edgeStyle=none;html=1;entryX=0.5;entryY=0;entryDx=0;entryDy=0;" parent="1" edge="1">
                    <mxGeometry relative="1" as="geometry">
                        <mxPoint x="616" y="130" as="sourcePoint"/>
                    </mxGeometry>
                </mxCell>
                <mxCell id="374" style="edgeStyle=none;html=1;" parent="1" source="359" target="366" edge="1">
                    <mxGeometry relative="1" as="geometry"/>
                </mxCell>
                <mxCell id="413" style="edgeStyle=none;html=1;entryX=0.75;entryY=1;entryDx=0;entryDy=0;strokeWidth=4;" parent="1" target="365" edge="1">
                    <mxGeometry relative="1" as="geometry">
                        <mxPoint x="192.2890891787497" y="478.6300000000001" as="sourcePoint"/>
                    </mxGeometry>
                </mxCell>
                <mxCell id="463" style="edgeStyle=none;html=1;exitX=0.25;exitY=1;exitDx=0;exitDy=0;entryX=0.25;entryY=0;entryDx=0;entryDy=0;" parent="1" source="417" target="418" edge="1">
                    <mxGeometry relative="1" as="geometry"/>
                </mxCell>
                <mxCell id="464" style="edgeStyle=none;html=1;exitX=0.75;exitY=1;exitDx=0;exitDy=0;entryX=0.75;entryY=0;entryDx=0;entryDy=0;" parent="1" source="365" target="366" edge="1">
                    <mxGeometry relative="1" as="geometry"/>
                </mxCell>
                <mxCell id="467" style="edgeStyle=none;html=1;exitX=0.25;exitY=1;exitDx=0;exitDy=0;entryX=0.75;entryY=0;entryDx=0;entryDy=0;" parent="1" source="416" target="417" edge="1">
                    <mxGeometry relative="1" as="geometry"/>
                </mxCell>
                <mxCell id="471" style="edgeStyle=none;html=1;entryX=1;entryY=0.5;entryDx=0;entryDy=0;" parent="1" source="417" target="365" edge="1">
                    <mxGeometry relative="1" as="geometry"/>
                </mxCell>
                <mxCell id="4" value="Domain_1_container" style="locked=1;" parent="0"/>
                <mxCell id="5" value="&lt;font style=&quot;font-size: 30px;&quot;&gt;&lt;b style=&quot;&quot;&gt;domain_1&lt;/b&gt;&lt;/font&gt;" style="rounded=1;whiteSpace=wrap;html=1;verticalAlign=top;fillColor=default;" parent="4" vertex="1">
                    <mxGeometry x="-550" y="-40" width="1580" height="880" as="geometry"/>
                </mxCell>
                <mxCell id="6" value="Domain_1_entities" style="locked=1;" parent="0"/>
                <mxCell id="472" style="edgeStyle=orthogonalEdgeStyle;html=1;entryX=1;entryY=0.5;entryDx=0;entryDy=0;strokeWidth=4;fillColor=#a20025;strokeColor=#6F0000;" parent="6" source="417" target="365" edge="1">
                    <mxGeometry relative="1" as="geometry">
                        <Array as="points">
                            <mxPoint x="544" y="300"/>
                        </Array>
                    </mxGeometry>
                </mxCell>
                <mxCell id="39" value="Domain_1_Users" style="locked=1;" parent="0"/>
                <mxCell id="370" style="edgeStyle=orthogonalEdgeStyle;html=1;entryX=0;entryY=0.5;entryDx=0;entryDy=0;dashed=1;dashPattern=1 1;strokeColor=#006600;strokeWidth=4;fontSize=20;endArrow=none;endFill=0;" parent="39" source="308" target="365" edge="1">
                    <mxGeometry relative="1" as="geometry">
                        <Array as="points">
                            <mxPoint x="-230" y="90"/>
                            <mxPoint x="-230" y="300"/>
                        </Array>
                    </mxGeometry>
                </mxCell>
                <mxCell id="371" style="edgeStyle=orthogonalEdgeStyle;html=1;entryX=0;entryY=0.5;entryDx=0;entryDy=0;dashed=1;dashPattern=1 1;strokeColor=#006600;strokeWidth=4;fontSize=20;endArrow=none;endFill=0;" parent="39" source="308" target="366" edge="1">
                    <mxGeometry relative="1" as="geometry">
                        <Array as="points">
                            <mxPoint x="-230" y="90"/>
                            <mxPoint x="-230" y="509"/>
                        </Array>
                    </mxGeometry>
                </mxCell>
                <mxCell id="372" style="edgeStyle=orthogonalEdgeStyle;html=1;entryX=0;entryY=0.5;entryDx=0;entryDy=0;dashed=1;dashPattern=1 1;strokeColor=#006600;strokeWidth=4;fontSize=20;endArrow=none;endFill=0;" parent="39" source="308" target="359" edge="1">
                    <mxGeometry relative="1" as="geometry">
                        <Array as="points">
                            <mxPoint x="-230" y="90"/>
                            <mxPoint x="-230" y="670"/>
                            <mxPoint x="-50" y="670"/>
                        </Array>
                    </mxGeometry>
                </mxCell>
                <mxCell id="373" value="&lt;font style=&quot;font-size: 15px;&quot;&gt;group_101&lt;br&gt;channel_101&lt;br&gt;thing_101&lt;br&gt;Administrator&lt;/font&gt;" style="edgeLabel;html=1;align=center;verticalAlign=middle;resizable=0;points=[];fontSize=20;" parent="372" vertex="1" connectable="0">
                    <mxGeometry x="-0.5255" y="4" relative="1" as="geometry">
                        <mxPoint y="-37" as="offset"/>
                    </mxGeometry>
                </mxCell>
                <mxCell id="425" style="edgeStyle=orthogonalEdgeStyle;html=1;entryX=0;entryY=0.75;entryDx=0;entryDy=0;dashed=1;dashPattern=8 8;fillColor=#e3c800;strokeColor=#B09500;endArrow=none;endFill=0;" parent="39" source="308" edge="1">
                    <mxGeometry relative="1" as="geometry">
                        <Array as="points">
                            <mxPoint x="-351" y="432"/>
                            <mxPoint x="-350" y="524"/>
                        </Array>
                        <mxPoint x="150" y="523.6300000000001" as="targetPoint"/>
                    </mxGeometry>
                </mxCell>
                <mxCell id="426" style="edgeStyle=orthogonalEdgeStyle;html=1;entryX=0;entryY=0.75;entryDx=0;entryDy=0;dashed=1;dashPattern=8 8;fillColor=#e3c800;strokeColor=#B09500;endArrow=none;endFill=0;" parent="39" source="308" edge="1">
                    <mxGeometry relative="1" as="geometry">
                        <Array as="points">
                            <mxPoint x="-351" y="687"/>
                        </Array>
                        <mxPoint x="150" y="686.6300000000001" as="targetPoint"/>
                    </mxGeometry>
                </mxCell>
                <mxCell id="444" style="edgeStyle=orthogonalEdgeStyle;html=1;entryX=0;entryY=0.75;entryDx=0;entryDy=0;dashed=1;dashPattern=8 8;strokeColor=#B09500;strokeWidth=1;fontSize=15;endArrow=none;endFill=0;fillColor=#e3c800;" parent="39" source="308" target="417" edge="1">
                    <mxGeometry relative="1" as="geometry">
                        <Array as="points">
                            <mxPoint x="-351" y="450"/>
                            <mxPoint x="440" y="450"/>
                            <mxPoint x="440" y="410"/>
                        </Array>
                    </mxGeometry>
                </mxCell>
                <mxCell id="448" style="edgeStyle=orthogonalEdgeStyle;html=1;entryX=0;entryY=0.75;entryDx=0;entryDy=0;dashed=1;dashPattern=8 8;strokeColor=#B09500;strokeWidth=1;fontSize=15;endArrow=none;endFill=0;fillColor=#e3c800;" parent="39" source="308" target="418" edge="1">
                    <mxGeometry relative="1" as="geometry">
                        <Array as="points">
                            <mxPoint x="-351" y="432"/>
                            <mxPoint x="-350" y="432"/>
                            <mxPoint x="-350" y="524"/>
                        </Array>
                    </mxGeometry>
                </mxCell>
                <mxCell id="308" value="&lt;font style=&quot;font-size: 25px;&quot;&gt;&lt;b&gt;&lt;u&gt;Domain Viewer&lt;/u&gt;&lt;/b&gt;&lt;br&gt;&lt;br&gt;user_3&lt;/font&gt;" style="rounded=1;html=1;fontSize=25;verticalAlign=top;" parent="39" vertex="1">
                    <mxGeometry x="-440.87" y="40" width="180" height="100" as="geometry"/>
                </mxCell>
                <mxCell id="380" style="edgeStyle=orthogonalEdgeStyle;html=1;exitX=0.25;exitY=1;exitDx=0;exitDy=0;entryX=0.25;entryY=0;entryDx=0;entryDy=0;dashed=1;dashPattern=1 1;strokeWidth=4;endArrow=classic;endFill=1;fillColor=#fa6800;strokeColor=#006600;" parent="39" source="365" target="366" edge="1">
                    <mxGeometry relative="1" as="geometry"/>
                </mxCell>
                <mxCell id="389" value="Adminstator (user_4)&lt;br&gt;of group_101 &lt;br&gt;have Adminstator &lt;br&gt;access &lt;br&gt;to channel_101" style="edgeLabel;html=1;align=right;verticalAlign=middle;resizable=0;points=[];fontSize=15;" parent="380" vertex="1" connectable="0">
                    <mxGeometry x="-0.1349" relative="1" as="geometry">
                        <mxPoint x="-5" y="6" as="offset"/>
                    </mxGeometry>
                </mxCell>
                <mxCell id="465" style="edgeStyle=none;html=1;exitX=0.75;exitY=1;exitDx=0;exitDy=0;entryX=0.75;entryY=0;entryDx=0;entryDy=0;fillColor=#0050ef;strokeColor=#001DBC;dashed=1;dashPattern=1 1;strokeWidth=4;" parent="39" source="365" target="366" edge="1">
                    <mxGeometry relative="1" as="geometry"/>
                </mxCell>
                <mxCell id="365" value="group_101&lt;span style=&quot;color: rgba(0, 0, 0, 0); font-family: monospace; font-size: 0px; text-align: start;&quot;&gt;%3CmxGraphModel%3E%3Croot%3E%3CmxCell%20id%3D%220%22%2F%3E%3CmxCell%20id%3D%221%22%20parent%3D%220%22%2F%3E%3CmxCell%20id%3D%222%22%20value%3D%22Group%202%22%20style%3D%22rounded%3D1%3Bhtml%3D1%3BfontSize%3D25%3B%22%20vertex%3D%221%22%20parent%3D%221%22%3E%3CmxGeometry%20x%3D%22509.9961589403973%22%20y%3D%22220%22%20width%3D%2296.42384105960264%22%20height%3D%2240%22%20as%3D%22geometry%22%2F%3E%3C%2FmxCell%3E%3C%2Froot%3E%3C%2FmxGraphModel%3&lt;/span&gt;" style="rounded=1;html=1;fontSize=25;" parent="39" vertex="1">
                    <mxGeometry x="-50" y="270" width="140" height="60" as="geometry"/>
                </mxCell>
                <mxCell id="381" style="edgeStyle=orthogonalEdgeStyle;html=1;exitX=0.25;exitY=1;exitDx=0;exitDy=0;entryX=0.25;entryY=0;entryDx=0;entryDy=0;dashed=1;dashPattern=1 1;strokeWidth=4;endArrow=classic;endFill=1;fillColor=#fa6800;strokeColor=#006600;" parent="39" source="366" target="359" edge="1">
                    <mxGeometry relative="1" as="geometry"/>
                </mxCell>
                <mxCell id="391" value="Adminstator(user_4)&amp;nbsp;&lt;br&gt;&lt;div style=&quot;&quot;&gt;of channel_101&lt;/div&gt;have Adminstator &lt;br&gt;access&lt;br&gt;to thing_101" style="edgeLabel;html=1;align=right;verticalAlign=middle;resizable=0;points=[];fontSize=15;" parent="381" vertex="1" connectable="0">
                    <mxGeometry x="-0.1859" y="-1" relative="1" as="geometry">
                        <mxPoint x="-4" y="9" as="offset"/>
                    </mxGeometry>
                </mxCell>
                <mxCell id="466" style="edgeStyle=none;html=1;exitX=0.75;exitY=1;exitDx=0;exitDy=0;entryX=0.75;entryY=0;entryDx=0;entryDy=0;dashed=1;dashPattern=1 1;strokeWidth=4;fillColor=#0050ef;strokeColor=#001DBC;" parent="39" source="366" target="359" edge="1">
                    <mxGeometry relative="1" as="geometry"/>
                </mxCell>
                <mxCell id="366" value="channel_101&lt;span style=&quot;color: rgba(0, 0, 0, 0); font-family: monospace; font-size: 0px; text-align: start;&quot;&gt;%3CmxGraphModel%3E%3Croot%3E%3CmxCell%20id%3D%220%22%2F%3E%3CmxCell%20id%3D%221%22%20parent%3D%220%22%2F%3E%3CmxCell%20id%3D%222%22%20value%3D%22Group%202%22%20style%3D%22rounded%3D1%3Bhtml%3D1%3BfontSize%3D25%3B%22%20vertex%3D%221%22%20parent%3D%221%22%3E%3CmxGeometry%20x%3D%22509.9961589403973%22%20y%3D%22220%22%20width%3D%2296.42384105960264%22%20height%3D%2240%22%20as%3D%22geometry%22%2F%3E%3C%2FmxCell%3E%3C%2Froot%3E%3C%2FmxGraphModel%3&lt;/span&gt;" style="rounded=1;html=1;fontSize=25;" parent="39" vertex="1">
                    <mxGeometry x="-50" y="478.63" width="140" height="60" as="geometry"/>
                </mxCell>
                <mxCell id="379" style="edgeStyle=orthogonalEdgeStyle;html=1;entryX=0.25;entryY=0;entryDx=0;entryDy=0;dashed=1;dashPattern=1 1;strokeWidth=4;endArrow=none;endFill=0;fillColor=#fa6800;strokeColor=#006600;" parent="39" source="378" target="365" edge="1">
                    <mxGeometry relative="1" as="geometry"/>
                </mxCell>
                <mxCell id="388" value="&lt;font style=&quot;font-size: 15px;&quot;&gt;&lt;font style=&quot;font-size: 15px;&quot;&gt;&amp;nbsp;Administrator of&amp;nbsp;&lt;br&gt;&lt;/font&gt;group_101&amp;nbsp;&lt;/font&gt;" style="edgeLabel;html=1;align=center;verticalAlign=middle;resizable=0;points=[];" parent="379" vertex="1" connectable="0">
                    <mxGeometry x="0.4166" y="1" relative="1" as="geometry">
                        <mxPoint x="-41" y="-40" as="offset"/>
                    </mxGeometry>
                </mxCell>
                <mxCell id="378" value="&lt;font style=&quot;font-size: 25px;&quot;&gt;&lt;b&gt;&lt;u&gt;Domain Member&lt;/u&gt;&lt;/b&gt;&lt;br&gt;&lt;br&gt;user_4&lt;/font&gt;" style="rounded=1;html=1;fontSize=25;verticalAlign=top;" parent="39" vertex="1">
                    <mxGeometry x="-170" y="40" width="230" height="100" as="geometry"/>
                </mxCell>
                <mxCell id="401" style="edgeStyle=orthogonalEdgeStyle;html=1;dashed=1;dashPattern=1 1;strokeWidth=4;endArrow=none;endFill=0;fillColor=#0050ef;strokeColor=#001DBC;exitX=0.25;exitY=1;exitDx=0;exitDy=0;entryX=0.75;entryY=0;entryDx=0;entryDy=0;" parent="39" source="400" target="365" edge="1">
                    <mxGeometry relative="1" as="geometry">
                        <Array as="points">
                            <mxPoint x="180" y="140"/>
                            <mxPoint x="180" y="200"/>
                            <mxPoint x="55" y="200"/>
                        </Array>
                    </mxGeometry>
                </mxCell>
                <mxCell id="405" value="&lt;font style=&quot;font-size: 15px;&quot;&gt;Editor of&amp;nbsp;&lt;br&gt;&lt;/font&gt;&lt;span style=&quot;font-size: 15px;&quot;&gt;group_101&amp;nbsp;&lt;/span&gt;" style="edgeLabel;html=1;align=center;verticalAlign=middle;resizable=0;points=[];" parent="401" vertex="1" connectable="0">
                    <mxGeometry x="-0.6174" y="-6" relative="1" as="geometry">
                        <mxPoint as="offset"/>
                    </mxGeometry>
                </mxCell>
                <mxCell id="400" value="&lt;font style=&quot;font-size: 25px;&quot;&gt;&lt;b&gt;&lt;u&gt;Domain Member&lt;/u&gt;&lt;/b&gt;&lt;br&gt;&lt;br&gt;user_5&lt;br&gt;&lt;/font&gt;" style="rounded=1;html=1;fontSize=25;verticalAlign=top;" parent="39" vertex="1">
                    <mxGeometry x="120" y="40" width="230" height="100" as="geometry"/>
                </mxCell>
                <mxCell id="438" style="edgeStyle=orthogonalEdgeStyle;html=1;entryX=1;entryY=0.5;entryDx=0;entryDy=0;dashed=1;dashPattern=1 1;strokeColor=#006600;strokeWidth=4;endArrow=none;endFill=0;" parent="39" source="416" target="418" edge="1">
                    <mxGeometry relative="1" as="geometry">
                        <Array as="points">
                            <mxPoint x="845" y="509"/>
                        </Array>
                    </mxGeometry>
                </mxCell>
                <mxCell id="439" style="edgeStyle=orthogonalEdgeStyle;html=1;entryX=1;entryY=0.5;entryDx=0;entryDy=0;dashed=1;dashPattern=1 1;strokeColor=#006600;strokeWidth=4;endArrow=none;endFill=0;" parent="39" source="416" target="419" edge="1">
                    <mxGeometry relative="1" as="geometry">
                        <Array as="points">
                            <mxPoint x="845" y="672"/>
                        </Array>
                    </mxGeometry>
                </mxCell>
                <mxCell id="441" value="channel_301&amp;nbsp;&lt;br&gt;thing_301&amp;nbsp;&lt;br&gt;Administrator" style="edgeLabel;html=1;align=center;verticalAlign=middle;resizable=0;points=[];fontSize=15;" parent="439" vertex="1" connectable="0">
                    <mxGeometry x="-0.5317" y="-2" relative="1" as="geometry">
                        <mxPoint x="2" y="-93" as="offset"/>
                    </mxGeometry>
                </mxCell>
                <mxCell id="416" value="&lt;font style=&quot;font-size: 25px;&quot;&gt;&lt;b&gt;&lt;u&gt;Domain Member&lt;/u&gt;&lt;/b&gt;&lt;br&gt;&lt;br&gt;user_9&lt;/font&gt;" style="rounded=1;html=1;fontSize=25;verticalAlign=top;" parent="39" vertex="1">
                    <mxGeometry x="730" y="40" width="230" height="100" as="geometry"/>
                </mxCell>
                <mxCell id="437" style="edgeStyle=orthogonalEdgeStyle;html=1;dashed=1;dashPattern=1 1;strokeColor=#006600;strokeWidth=4;endArrow=none;endFill=0;" parent="39" edge="1">
                    <mxGeometry relative="1" as="geometry">
                        <mxPoint x="529.0285714285715" y="143" as="sourcePoint"/>
                        <mxPoint x="530" y="364" as="targetPoint"/>
                        <Array as="points">
                            <mxPoint x="530" y="143"/>
                        </Array>
                    </mxGeometry>
                </mxCell>
                <mxCell id="440" value="&lt;font style=&quot;font-size: 15px;&quot;&gt;group_301 &lt;br&gt;Administrator&lt;/font&gt;" style="edgeLabel;html=1;align=center;verticalAlign=middle;resizable=0;points=[];" parent="437" vertex="1" connectable="0">
                    <mxGeometry x="-0.2587" relative="1" as="geometry">
                        <mxPoint y="-42" as="offset"/>
                    </mxGeometry>
                </mxCell>
                <mxCell id="415" value="&lt;font style=&quot;font-size: 25px;&quot;&gt;&lt;b&gt;&lt;u&gt;Domain Member&lt;/u&gt;&lt;/b&gt;&lt;br&gt;&lt;br&gt;user_8&lt;/font&gt;" style="rounded=1;html=1;fontSize=25;verticalAlign=top;" parent="39" vertex="1">
                    <mxGeometry x="444" y="43" width="230" height="100" as="geometry"/>
                </mxCell>
                <mxCell id="443" style="edgeStyle=orthogonalEdgeStyle;html=1;entryX=0;entryY=0.75;entryDx=0;entryDy=0;dashed=1;dashPattern=8 8;strokeColor=#B09500;strokeWidth=1;fontSize=15;endArrow=none;endFill=0;fillColor=#e3c800;" parent="39" source="308" target="419" edge="1">
                    <mxGeometry relative="1" as="geometry">
                        <Array as="points">
                            <mxPoint x="-351" y="687"/>
                        </Array>
                    </mxGeometry>
                </mxCell>
                <mxCell id="470" style="edgeStyle=orthogonalEdgeStyle;html=1;strokeWidth=4;endArrow=classic;endFill=1;fillColor=#1ba1e2;strokeColor=#006EAF;" parent="39" source="418" target="417" edge="1">
                    <mxGeometry relative="1" as="geometry">
                        <Array as="points">
                            <mxPoint x="743" y="450"/>
                            <mxPoint x="544" y="450"/>
                        </Array>
                    </mxGeometry>
                </mxCell>
                <mxCell id="76" value="Legends" style="locked=1;" parent="0"/>
                <mxCell id="396" style="edgeStyle=orthogonalEdgeStyle;html=1;entryX=0;entryY=0.75;entryDx=0;entryDy=0;strokeColor=#B09500;dashed=1;dashPattern=8 8;endArrow=none;endFill=0;" parent="76" source="308" target="365" edge="1">
                    <mxGeometry relative="1" as="geometry">
                        <Array as="points">
                            <mxPoint x="-351" y="315"/>
                        </Array>
                    </mxGeometry>
                </mxCell>
                <mxCell id="397" style="edgeStyle=orthogonalEdgeStyle;html=1;entryX=0;entryY=0.75;entryDx=0;entryDy=0;strokeColor=#B09500;dashed=1;dashPattern=8 8;endArrow=none;endFill=0;" parent="76" source="308" target="366" edge="1">
                    <mxGeometry relative="1" as="geometry">
                        <Array as="points">
                            <mxPoint x="-351" y="432"/>
                            <mxPoint x="-350" y="524"/>
                        </Array>
                    </mxGeometry>
                </mxCell>
                <mxCell id="398" style="edgeStyle=orthogonalEdgeStyle;html=1;entryX=0;entryY=0.75;entryDx=0;entryDy=0;strokeColor=#B09500;dashed=1;dashPattern=8 8;endArrow=none;endFill=0;" parent="76" source="308" target="359" edge="1">
                    <mxGeometry relative="1" as="geometry">
                        <Array as="points">
                            <mxPoint x="-351" y="542"/>
                            <mxPoint x="-350" y="542"/>
                            <mxPoint x="-350" y="687"/>
                        </Array>
                    </mxGeometry>
                </mxCell>
                <mxCell id="399" value="&lt;span style=&quot;font-size: 25px;&quot;&gt;Domain Viewer&lt;/span&gt;" style="edgeLabel;html=1;align=center;verticalAlign=middle;resizable=0;points=[];rotation=-90;" parent="398" vertex="1" connectable="0">
                    <mxGeometry x="-0.4715" y="1" relative="1" as="geometry">
                        <mxPoint as="offset"/>
                    </mxGeometry>
                </mxCell>
                <mxCell id="91" value="user_entities" style="locked=1;" parent="0"/>
                <mxCell id="376" style="edgeStyle=none;html=1;strokeColor=#3700CC;strokeWidth=2;" parent="91" source="359" target="366" edge="1">
                    <mxGeometry relative="1" as="geometry"/>
                </mxCell>
                <mxCell id="359" value="thing_101&lt;span style=&quot;color: rgba(0, 0, 0, 0); font-family: monospace; font-size: 0px; text-align: start;&quot;&gt;%3CmxGraphModel%3E%3Croot%3E%3CmxCell%20id%3D%220%22%2F%3E%3CmxCell%20id%3D%221%22%20parent%3D%220%22%2F%3E%3CmxCell%20id%3D%222%22%20value%3D%22Group%202%22%20style%3D%22rounded%3D1%3Bhtml%3D1%3BfontSize%3D25%3B%22%20vertex%3D%221%22%20parent%3D%221%22%3E%3CmxGeometry%20x%3D%22509.9961589403973%22%20y%3D%22220%22%20width%3D%2296.42384105960264%22%20height%3D%2240%22%20as%3D%22geometry%22%2F%3E%3C%2FmxCell%3E%3C%2Froot%3E%3C%2FmxGraphModel%3&lt;/span&gt;" style="rounded=1;html=1;fontSize=25;" parent="91" vertex="1">
                    <mxGeometry x="-50" y="641.63" width="140" height="60" as="geometry"/>
                </mxCell>
                <mxCell id="377" style="edgeStyle=none;html=1;strokeColor=#006EAF;strokeWidth=2;" parent="91" source="366" target="365" edge="1">
                    <mxGeometry relative="1" as="geometry"/>
                </mxCell>
                <mxCell id="417" value="group_301&lt;span style=&quot;color: rgba(0, 0, 0, 0); font-family: monospace; font-size: 0px; text-align: start;&quot;&gt;%3CmxGraphModel%3E%3Croot%3E%3CmxCell%20id%3D%220%22%2F%3E%3CmxCell%20id%3D%221%22%20parent%3D%220%22%2F%3E%3CmxCell%20id%3D%222%22%20value%3D%22Group%202%22%20style%3D%22rounded%3D1%3Bhtml%3D1%3BfontSize%3D25%3B%22%20vertex%3D%221%22%20parent%3D%221%22%3E%3CmxGeometry%20x%3D%22509.9961589403973%22%20y%3D%22220%22%20width%3D%2296.42384105960264%22%20height%3D%2240%22%20as%3D%22geometry%22%2F%3E%3C%2FmxCell%3E%3C%2Froot%3E%3C%2FmxGraphModel%3&lt;/span&gt;" style="rounded=1;html=1;fontSize=25;" parent="91" vertex="1">
                    <mxGeometry x="474" y="364" width="140" height="60" as="geometry"/>
                </mxCell>
                <mxCell id="418" value="channel_301&lt;span style=&quot;color: rgba(0, 0, 0, 0); font-family: monospace; font-size: 0px; text-align: start;&quot;&gt;%3CmxGraphModel%3E%3Croot%3E%3CmxCell%20id%3D%220%22%2F%3E%3CmxCell%20id%3D%221%22%20parent%3D%220%22%2F%3E%3CmxCell%20id%3D%222%22%20value%3D%22Group%202%22%20style%3D%22rounded%3D1%3Bhtml%3D1%3BfontSize%3D25%3B%22%20vertex%3D%221%22%20parent%3D%221%22%3E%3CmxGeometry%20x%3D%22509.9961589403973%22%20y%3D%22220%22%20width%3D%2296.42384105960264%22%20height%3D%2240%22%20as%3D%22geometry%22%2F%3E%3C%2FmxCell%3E%3C%2Froot%3E%3C%2FmxGraphModel%3&lt;/span&gt;" style="rounded=1;html=1;fontSize=25;" parent="91" vertex="1">
                    <mxGeometry x="673" y="479" width="140" height="60" as="geometry"/>
                </mxCell>
                <mxCell id="419" value="thing_301&lt;span style=&quot;color: rgba(0, 0, 0, 0); font-family: monospace; font-size: 0px; text-align: start;&quot;&gt;%3CmxGraphModel%3E%3Croot%3E%3CmxCell%20id%3D%220%22%2F%3E%3CmxCell%20id%3D%221%22%20parent%3D%220%22%2F%3E%3CmxCell%20id%3D%222%22%20value%3D%22Group%202%22%20style%3D%22rounded%3D1%3Bhtml%3D1%3BfontSize%3D25%3B%22%20vertex%3D%221%22%20parent%3D%221%22%3E%3CmxGeometry%20x%3D%22509.9961589403973%22%20y%3D%22220%22%20width%3D%2296.42384105960264%22%20height%3D%2240%22%20as%3D%22geometry%22%2F%3E%3C%2FmxCell%3E%3C%2Froot%3E%3C%2FmxGraphModel%3&lt;/span&gt;" style="rounded=1;html=1;fontSize=25;" parent="91" vertex="1">
                    <mxGeometry x="673" y="641.63" width="140" height="60" as="geometry"/>
                </mxCell>
                <mxCell id="423" style="edgeStyle=orthogonalEdgeStyle;html=1;fillColor=#6a00ff;strokeColor=#3700CC;strokeWidth=4;" parent="91" source="419" target="418" edge="1">
                    <mxGeometry relative="1" as="geometry"/>
                </mxCell>
            </root>
        </mxGraphModel>
    </diagram>
</mxfile>